<svg xmlns="http://www.w3.org/2000/svg" viewBox="0 0 640 631.56"><defs><style>.a{fill:none;}.b{fill:#ff4f00;}</style></defs><title>aerolab</title><rect class="a" x="-193.95" y="-224.22" width="1080" height="1080"/><path class="b" d="M639.51,248.3,497.21,1.85a3.69,3.69,0,0,0-5-1.36L245.71,142.79a3.69,3.69,0,0,0-1.77,3.93L323.85,537.2l-11.7,13.2c-19.64,22.14-36.27,34.14-67.88,34.14-35.44,0-52.08-18.69-78.43-51.71-31.05-38.91-69.59-87.21-162.06-88.49A3.75,3.75,0,0,0,0,448.06V487.7a3.7,3.7,0,0,0,3.67,3.67c69.83,1.14,96.84,35,125.41,70.79,26,32.53,55.38,69.4,115.19,69.4,51.64,0,80-24,103.06-50l84.88-95.72h0L639.07,252.6A3.7,3.7,0,0,0,639.51,248.3Z"/></svg>